<svg xmlns="http://www.w3.org/2000/svg" viewBox="0 0 100 100" width="100" height="100">
	<style>
		tspan { white-space:pre }
		.shp0 { fill: #c21b23 } 
		.shp1 { fill: #ccc4c1 } 
		.shp2 { fill: #ee3840 } 
		.shp3 { fill: #11113f } 
	</style>
	<path id="Layer" class="shp0" d="M92.7 22.59L77.42 7.31L47.07 34.46L48.3 51.71L65.55 52.94L92.7 22.59Z" />
	<path id="Layer" class="shp1" d="M37.02 57.85L3.38 91.5L2.13 97.79L8.5 96.62L42.15 62.98L37.02 57.85Z" />
	<path id="Layer" class="shp2" d="M66.01 52.59L47.53 34.1C36.13 29.77 22.74 32.19 13.56 41.37L58.74 86.56C67.93 77.37 70.35 63.99 66.01 52.59Z" />
	<path id="Layer" fill-rule="evenodd" class="shp3" d="M99.34 28.76C98.45 29.64 97.02 29.64 96.13 28.76L93.02 25.65L68.36 53.21C72.46 65.47 69.29 79.09 60.11 88.28C59.68 88.71 59.11 88.94 58.51 88.94C57.91 88.94 57.33 88.71 56.9 88.28L38.48 69.85L11.23 97.09C10.97 97.36 10.65 97.55 10.29 97.66L2.92 99.9C2.71 99.97 2.49 100 2.27 100C1.67 100 1.09 99.77 0.66 99.34C0.07 98.74 -0.15 97.88 0.1 97.08L2.34 89.71C2.45 89.35 2.64 89.03 2.91 88.77L30.15 61.52L11.72 43.1C11.29 42.67 11.06 42.09 11.06 41.49C11.06 40.89 11.29 40.32 11.72 39.89C20.91 30.71 34.53 27.54 46.79 31.64L74.35 6.98L71.24 3.87C70.36 2.98 70.36 1.55 71.24 0.66C72.13 -0.22 73.56 -0.22 74.44 0.66L79.24 5.45C79.24 5.46 79.25 5.47 79.26 5.48C79.27 5.49 99.33 25.55 99.34 25.56C100.22 26.44 100.22 27.87 99.34 28.76ZM35.27 66.65L33.35 64.73L6.51 91.57L5.67 94.33L8.43 93.49L35.27 66.65ZM89.81 22.44L77.56 10.19L50.59 34.32L53.8 37.53C54.69 38.42 54.69 39.85 53.8 40.73C52.92 41.62 51.48 41.62 50.6 40.73L46.04 36.18C35.94 32.52 24.67 34.63 16.59 41.56L34.94 59.91C34.94 59.91 34.95 59.92 34.95 59.92C34.96 59.93 34.96 59.93 34.97 59.94L40.06 65.04C40.07 65.04 40.07 65.04 40.08 65.05C40.08 65.05 40.09 65.06 40.09 65.06L58.44 83.42C65.38 75.33 67.48 64.06 63.83 53.96L56.06 46.2C55.18 45.31 55.18 43.88 56.06 42.99C56.95 42.11 58.38 42.11 59.27 42.99L65.69 49.41L89.81 22.44Z" />
</svg>